<svg xmlns="http://www.w3.org/2000/svg" width="1430" height="467.85" viewBox="0 0 1430 467.85">
  <title>Asset 2</title>
  <g id="Layer_2" data-name="Layer 2">
    <g id="Layer_2-2" data-name="Layer 2">
      <g>
        <path d="M35,467.68C18.07,466.2,0,454.08,0,424.47V133.87c0-12.32,4.71-33.4,36.23-36.25L1386.82.2a45.76,45.76,0,0,1,8.13,0c16.17,1.41,35,13.59,35,43.24V333.75c0,20.42-13.91,34.31-36.29,36.26L43,467.7A48.88,48.88,0,0,1,35,467.68Z" fill="#cbbaa5"/>
        <path d="M1389.27,349.91,38.73,447.59C24.61,448.68,19,440.73,19,426.14V135.54c0-9.29,3.54-16.54,19.73-18L1389.27,20.11C1401.94,18.94,1409,26,1409,41.57V331.91C1409,342.8,1401.77,348.82,1389.27,349.91Z" fill="#f1e3d1" stroke="#780922" stroke-miterlimit="10" stroke-width="4"/>
      </g>
      <g>
        <path d="M130.67,224.56l-16.1,1.24c0-13.8-8.28-18.68-17.25-18-9.43.73-16.79,7.27-16.79,17.85,0,7.59,3.22,14.47,9,22.54l28.52,39c10.12,13.94,13.57,23.33,13.57,34.6,0,19.78-13.57,34.17-33.81,35.72S63,347.29,63,324.06l16.33-1.26c0,14.72,8.51,19.58,18.63,18.8s17.25-8.23,17.25-19.27c0-7.36-1.61-13-9.66-23.87l-28.29-39C69,247.93,64.43,236.79,64.43,226.9c0-20,14.49-33.32,33.12-34.75S130.67,202,130.67,224.56Z" fill="#cbbaa5"/>
        <path d="M139.64,318.39V225c0-21.16,14-37,34.27-38.52s34.5,12.06,34.5,33.22V313.1c0,20.93-14.26,36.75-34.5,38.31S139.64,339.32,139.64,318.39Zm52.44-3.58V220.29c0-13.11-8-18.7-18.17-17.92S156,210,156,223.07V317.6c0,13.11,8,18.7,17.94,17.94S192.08,327.93,192.08,314.82Z" fill="#cbbaa5"/>
        <path d="M240.61,242.08V344.89l-16.1,1.24V184l15.87-1.22,26.45,116.87,26.68-121,16.1-1.24V339.57l-16.33,1.26V237.56l-20.7,90.37-11.5.89Z" fill="#cbbaa5"/>
        <path d="M385.5,187.45l-41.17,3.17V247l30.13-2.32v14.49l-30.13,2.32V321l41.17-3.17v15.87L328,338.16V176l57.5-4.43Z" fill="#cbbaa5"/>
        <path d="M455.88,182,432,183.87V330.15l-16.56,1.28V185.15L391.94,187V171.09l63.94-4.92Z" fill="#cbbaa5"/>
        <path d="M482.1,326.29l-16.56,1.28V165.42l16.56-1.28v72.22l33.81-2.6V161.54l16.33-1.26V322.43l-16.33,1.26V248.25l-33.81,2.6Z" fill="#cbbaa5"/>
        <path d="M567,319.75,550.64,321V158.86L567,157.6Z" fill="#cbbaa5"/>
        <path d="M654.37,313l-15.18,1.17L601.7,204.38v112.7l-16.33,1.26V156.19L600.32,155,638,266.67V152.13l16.33-1.26Z" fill="#cbbaa5"/>
        <path d="M739.24,231.74v40.71c0,20.93-14,36.5-34.27,38.06s-34.27-11.85-34.27-32.78V184.12c0-21.16,14-37,34.27-38.52,19.78-1.52,34,11.87,34.27,32.78l-16.33,1.26c0-13.11-8-18.7-17.94-17.94-10.12.78-17.94,7.59-17.94,20.47v94.76c0,14,9.43,18.59,17.94,17.94,9.89-.76,17.94-7.59,17.94-20.7V247.48l-18.4,1.42V234.41Z" fill="#cbbaa5"/>
        <path d="M795.58,302.15l-16.33,1.26V141.26L795.58,140Z" fill="#cbbaa5"/>
        <path d="M873.55,167.34l-16.1,1.24c0-13.8-8.28-18.68-17.25-18-9.43.73-16.79,7.27-16.79,17.85,0,7.59,3.22,14.47,9,22.54l28.52,39c10.12,13.94,13.57,23.33,13.57,34.6,0,19.78-13.57,34.17-33.81,35.72s-34.73-10.21-34.73-33.44l16.33-1.26c0,14.72,8.51,19.58,18.63,18.8s17.25-8.23,17.25-19.27c0-7.36-1.61-13-9.66-23.87l-28.29-39c-8.28-11.55-12.88-22.7-12.88-32.59,0-20,14.49-33.32,33.12-34.75S873.55,144.8,873.55,167.34Z" fill="#cbbaa5"/>
        <path d="M909.42,131.23l31.05-2.39c20.24-1.56,33.81,7.06,33.81,28.22V181.2c0,14-4.6,21.51-12.88,25.37,8.74,2.78,13.8,8.6,13.8,23.55V258c0,21.39-13.57,31.41-33.81,33l-32,2.46Zm32.2,70.43c10.81-.83,16.33-4.25,16.33-21.27V164.06c0-16.33-5.29-20.29-18.17-19.3l-14,1.08v57Zm-.69,73.65c11.73-.9,17.94-4.83,17.94-21.39V232.53c0-15.18-6-18.63-16.56-17.81L925.75,216v60.49Z" fill="#cbbaa5"/>
        <path d="M990.61,287.12V125l31.51-2.43c20.24-1.56,34.27,9.78,34.27,33.93v39.33c0,20-8.51,30.32-20.7,35.63L1057.08,282l-18.17,1.4c-6.21-15.39-12.42-31.24-18.86-46.62l-12.88,1v48.07Zm16.56-147.55v82.57l13.11-1c11.73-.9,20-6.14,20-27.53V157.72c0-15.64-9-20-20-19.16Z" fill="#cbbaa5"/>
        <path d="M1069.73,246.76V153.38c0-21.16,14-37,34.27-38.52s34.5,12.06,34.5,33.22v93.38c0,20.93-14.26,36.75-34.5,38.31S1069.73,267.69,1069.73,246.76Zm52.44-3.58V148.65c0-13.11-8.05-18.7-18.17-17.92s-17.94,7.59-17.94,20.7V246c0,13.11,8.05,18.7,17.94,17.94S1122.17,256.29,1122.17,243.18Z" fill="#cbbaa5"/>
        <path d="M1223.83,269.16l-18.17,1.4L1179,197.18l-8,.62v75.44l-16.56,1.28V112.36l16.56-1.28v72l8-.62,26.68-74,18.17-1.4-31.28,81.3Z" fill="#cbbaa5"/>
        <path d="M1289.84,117.8,1248.67,121v56.35L1278.8,175v14.49l-30.13,2.32v59.57l41.17-3.17v15.87l-57.5,4.43V106.36l57.5-4.43Z" fill="#cbbaa5"/>
        <path d="M1373.79,257.61l-15.18,1.17L1321.12,149v112.7l-16.33,1.26V100.78l14.95-1.15,37.72,111.63V96.72l16.33-1.26Z" fill="#cbbaa5"/>
      </g>
      <g>
        <path d="M122.2,214.08l-16.1,1.24c0-13.8-8.28-18.68-17.25-18-9.43.73-16.79,7.27-16.79,17.85,0,7.59,3.22,14.47,9,22.54l28.52,39c10.12,13.94,13.57,23.33,13.57,34.6,0,19.78-13.57,34.17-33.81,35.72s-34.73-10.21-34.73-33.43l16.33-1.26c0,14.72,8.51,19.58,18.63,18.8s17.25-8.23,17.25-19.27c0-7.36-1.61-13-9.66-23.87L68.84,249C60.56,237.46,56,226.31,56,216.42c0-20,14.49-33.32,33.12-34.75S122.2,191.54,122.2,214.08Z" fill="#780922"/>
        <path d="M131.17,307.92V214.54c0-21.16,14-37,34.27-38.52s34.5,12.06,34.5,33.22v93.38c0,20.93-14.26,36.75-34.5,38.31S131.17,328.85,131.17,307.92Zm52.44-3.58V209.81c0-13.11-8.05-18.7-18.17-17.92s-17.94,7.59-17.94,20.7v94.53c0,13.11,8,18.7,17.94,17.94S183.61,317.45,183.61,304.34Z" fill="#780922"/>
        <path d="M232.14,231.6V334.41L216,335.65V173.5l15.87-1.22,26.45,116.87,26.68-121,16.1-1.24V329.1l-16.33,1.26V227.08l-20.7,90.37-11.5.89Z" fill="#780922"/>
        <path d="M377,177l-41.17,3.17v56.35L366,234.17v14.49L335.87,251v59.57L377,307.38v15.87l-57.5,4.43V165.53L377,161.1Z" fill="#780922"/>
        <path d="M447.42,171.55l-23.92,1.84V319.67l-16.56,1.28V174.67l-23.46,1.81V160.61l63.94-4.92Z" fill="#780922"/>
        <path d="M473.64,315.81l-16.56,1.28V154.94l16.56-1.28v72.22l33.81-2.6V151.06l16.33-1.26V311.95l-16.33,1.26V237.77l-33.81,2.6Z" fill="#780922"/>
        <path d="M558.51,309.27l-16.33,1.26V148.38l16.33-1.26Z" fill="#780922"/>
        <path d="M645.9,302.54l-15.18,1.17L593.23,193.9V306.6l-16.33,1.26V145.71l15-1.15,37.72,111.63V141.65l16.33-1.26Z" fill="#780922"/>
        <path d="M730.77,221.26V262c0,20.93-14,36.5-34.27,38.06s-34.27-11.85-34.27-32.78V173.64c0-21.16,14-37,34.27-38.52,19.78-1.52,34,11.87,34.27,32.78l-16.33,1.26c0-13.11-8-18.7-17.94-17.94-10.12.78-17.94,7.59-17.94,20.47v94.76c0,14,9.43,18.59,17.94,17.94,9.89-.76,17.94-7.59,17.94-20.7V237L696,238.42V223.93Z" fill="#780922"/>
        <path d="M787.12,291.67l-16.33,1.26V130.78l16.33-1.26Z" fill="#780922"/>
        <path d="M865.09,156.86,849,158.1c0-13.8-8.28-18.68-17.25-18-9.43.73-16.79,7.27-16.79,17.85,0,7.59,3.22,14.47,9,22.54l28.52,39c10.12,13.94,13.57,23.33,13.57,34.6,0,19.78-13.57,34.17-33.81,35.72s-34.73-10.21-34.73-33.43l16.33-1.26c0,14.72,8.51,19.58,18.63,18.8s17.25-8.23,17.25-19.27c0-7.36-1.61-13-9.66-23.87l-28.29-39c-8.28-11.55-12.88-22.7-12.88-32.59,0-20,14.49-33.32,33.12-34.75S865.09,134.32,865.09,156.86Z" fill="#780922"/>
        <path d="M901,120.75,932,118.36c20.24-1.56,33.81,7.06,33.81,28.22v24.15c0,14-4.6,21.51-12.88,25.37,8.74,2.78,13.8,8.6,13.8,23.55v27.83c0,21.39-13.57,31.4-33.81,33l-32,2.46Zm32.2,70.43c10.81-.83,16.33-4.25,16.33-21.27V153.58c0-16.33-5.29-20.29-18.17-19.3l-14,1.08v57Zm-.69,73.65c11.73-.9,17.94-4.83,17.94-21.39V222.05c0-15.18-6-18.63-16.56-17.81l-16.56,1.28V266Z" fill="#780922"/>
        <path d="M982.15,276.64V114.5l31.51-2.43c20.24-1.56,34.27,9.78,34.27,33.93v39.33c0,20-8.51,30.32-20.7,35.63l21.39,50.56-18.17,1.4c-6.21-15.39-12.42-31.24-18.86-46.62l-12.88,1v48.07Zm16.56-147.55v82.57l13.11-1c11.73-.9,20-6.14,20-27.53V147.24c0-15.64-9-20-20-19.16Z" fill="#780922"/>
        <path d="M1061.27,236.28V142.9c0-21.16,14-37,34.27-38.52s34.5,12.06,34.5,33.22V231c0,20.93-14.26,36.75-34.5,38.31S1061.27,257.21,1061.27,236.28Zm52.44-3.58V138.18c0-13.11-8-18.7-18.17-17.92s-17.94,7.59-17.94,20.7v94.53c0,13.11,8,18.7,17.94,17.94S1113.71,245.81,1113.71,232.7Z" fill="#780922"/>
        <path d="M1215.37,258.68l-18.17,1.4-26.68-73.38-8.05.62v75.44L1145.91,264V101.89l16.56-1.28v72l8.05-.62,26.68-74,18.17-1.4-31.28,81.3Z" fill="#780922"/>
        <path d="M1281.38,107.32l-41.17,3.17v56.35l30.13-2.32V179l-30.13,2.32V240.9l41.17-3.17V253.6l-57.5,4.43V95.88l57.5-4.43Z" fill="#780922"/>
        <path d="M1365.33,247.13l-15.18,1.17-37.49-109.81v112.7l-16.33,1.26V90.3l15-1.15L1349,200.78V86.24L1365.33,85Z" fill="#780922"/>
      </g>
    </g>
  </g>
</svg>
